<svg id="Capa_1" data-name="Capa 1" xmlns="http://www.w3.org/2000/svg" viewBox="0 0 708.73 770.41"><defs><style>.cls-1{fill:#2f2e41;}.cls-2{fill:#a0616a;}.cls-3,.cls-6{fill:#998a42;}.cls-4{fill:#e6e6e6;}.cls-5{fill:#fff;}.cls-6{font-size:27px;font-family:Montserrat-Black, Montserrat;font-weight:800;}.cls-7{letter-spacing:-0.01em;}.cls-8{letter-spacing:0em;}.cls-9{letter-spacing:-0.01em;}</style></defs><polygon class="cls-1" points="648.31 262.42 579.68 278.12 550.69 223.44 609.37 200.53 648.31 262.42"/><path class="cls-2" d="M483.61,334.87l-9.5-18.54a11.12,11.12,0,0,1,4.82-15,12.32,12.32,0,0,1,1.64-.68h0a11.13,11.13,0,0,1,14,7.15,12.3,12.3,0,0,1,.43,1.89l2.58,18.52,24.28,38.26V343.7l27.22,2.95-3.81,40.64a15.31,15.31,0,0,1-5.63,10.5h0a15.34,15.34,0,0,1-21.58-2.29,15.85,15.85,0,0,1-1.43-2.1Z" transform="translate(0 0)"/><path class="cls-1" d="M689.6,703.46l-21.33,1.47-14-131.69-80.93-79.45-8.09,211.14H541c-14.81-129.64-50.32-267.62-4.41-300.9l12.5-21.33,75.78,14,2.94,29.43,13.61,34.19,51.25,86.11a32.28,32.28,0,0,1,4.5,18.27Z" transform="translate(0 0)"/><path class="cls-3" d="M554.67,761.58h0a17.49,17.49,0,0,1-17.49-17.48c0-.43,0-.87.05-1.29l3-40.82c9-9.18,17.27-8,25,2.21L571.88,741a17.5,17.5,0,0,1-14.12,20.3A17.83,17.83,0,0,1,554.67,761.58Z" transform="translate(0 0)"/><path class="cls-3" d="M697.46,770.41h0a11.28,11.28,0,0,1-8.39-3.74l-40.59-45.2a12.64,12.64,0,0,1,1-17.84c.16-.15.34-.3.51-.44l16.11-13,23.54,10.3,18.54,55a11.28,11.28,0,0,1-10.68,14.87Z" transform="translate(0 0)"/><circle class="cls-2" cx="592.25" cy="232.06" r="26.77"/><path class="cls-2" d="M607.57,346.28H573.73L566,279c8.24-11.61,10.92-23.74,7.73-36.42h33.84c-5.22,11.39-4.32,22.79,9.2,34.21Z" transform="translate(0 0)"/><path class="cls-4" d="M623.39,398.14c-26.51,9.73-51.37,6.73-74.31-11-.55-21.26-5.74-47.64-13-76.31a20.16,20.16,0,0,1,9.66-22.55L567.48,276l24.27,57.38,22.07-58.85,14.68,3.26a16.71,16.71,0,0,1,13,14.86C645.34,336.32,644.19,375.68,623.39,398.14Z" transform="translate(0 0)"/><path class="cls-4" d="M552,361.36c-15.36,1.49-26.39-4.86-33.85-17.66l5.15-23.58a36.09,36.09,0,0,1,25.22-34.41l2.74-.86Z" transform="translate(0 0)"/><path class="cls-2" d="M662.38,466.56,666,482.94a11.77,11.77,0,0,1-8.94,14,12,12,0,0,1-4.3.15h0a11.78,11.78,0,0,1-9.89-13.39c0-.27.09-.53.15-.8L647,465,635.16,350.32,658.7,340Z" transform="translate(0 0)"/><path class="cls-4" d="M631.48,355.47c15.35,1.49,26.38-4.85,33.84-17.65l-5.15-23.58A36.07,36.07,0,0,0,635,279.83l-2.73-.87Z" transform="translate(0 0)"/><path class="cls-1" d="M606.85,192.09s15.21,2.86,18.72,21.82a34.9,34.9,0,0,1,.3,9.68C625.52,227.24,626,235,634,244a198.69,198.69,0,0,1,14.43,18.53h0l-15.88,4.23-7.1-26.32a134.67,134.67,0,0,0-15.73-36.16l-.15-.23s-5.28,14.09-19.42,16l4.36-5.74s-16.53,9.55-25.89,12.47a6.15,6.15,0,0,0-2,10.7l.2.16c6.89,5.23,21,17.72,15.39,29.79s.93,14.28.93,14.28l-11.94-4.54-5.47-2.34.56,4-26.68.56s-7.21-.05,5.6-19.29c0,0,3.09-7.21.55-12.72a29.3,29.3,0,0,1-3-13.42C543.57,214.66,551.74,175.19,606.85,192.09Z" transform="translate(0 0)"/><path d="M503.49,262.42l-3.79-1.27,34.8-103.87a63.41,63.41,0,0,0-40-80.26h0L274.45,3.3a63.41,63.41,0,0,0-80.26,40h0L3.3,613.13a63.41,63.41,0,0,0,40,80.26h0l220.07,73.72a63.4,63.4,0,0,0,80.25-40h0l131.33-392,3.8,1.27Z" transform="translate(0 0)"/><path class="cls-5" d="M489.81,92.84l-28.73-9.62A22.51,22.51,0,0,1,431.49,106L305.42,63.75a22.49,22.49,0,0,1-9.91-36l-26.83-9a47.34,47.34,0,0,0-59.93,29.86l-190.62,569A47.36,47.36,0,0,0,48,677.57h0l221.13,74.07a47.34,47.34,0,0,0,59.93-29.85h0l190.62-569a47.36,47.36,0,0,0-29.86-59.93Z" transform="translate(0 0)"/><path d="M436.41,284.37l-236-79.05a4.62,4.62,0,0,1-2.91-5.83L217.12,141A4.63,4.63,0,0,1,223,138l236,79.05a4.63,4.63,0,0,1,2.91,5.84l-19.61,58.54A4.6,4.6,0,0,1,436.41,284.37Zm-214-144.58a2.77,2.77,0,0,0-3.5,1.74l-19.61,58.54a2.77,2.77,0,0,0,1.75,3.5l236,79.05a2.76,2.76,0,0,0,3.5-1.74l19.61-58.54a2.77,2.77,0,0,0-1.74-3.5Z" transform="translate(0 0)"/><path d="M358.82,516l-236-79.06a4.62,4.62,0,0,1-2.91-5.83l36.3-108.36a4.61,4.61,0,0,1,5.84-2.9l236,79.05a4.62,4.62,0,0,1,2.91,5.83l-36.3,108.36A4.62,4.62,0,0,1,358.82,516ZM161.47,321.59a2.76,2.76,0,0,0-3.5,1.74l-36.3,108.36a2.78,2.78,0,0,0,1.75,3.5l236,79.05a2.77,2.77,0,0,0,3.5-1.74l36.3-108.36a2.77,2.77,0,0,0-1.74-3.5Z" transform="translate(0 0)"/><path class="cls-4" d="M404.21,374.68,299.32,339.55a4.6,4.6,0,0,1-2.9-5.83L316,275.18a4.62,4.62,0,0,1,5.83-2.91l104.88,35.14a4.6,4.6,0,0,1,2.91,5.83L410,371.78A4.6,4.6,0,0,1,404.21,374.68ZM321.28,274a2.77,2.77,0,0,0-3.5,1.74L298.17,334.3a2.75,2.75,0,0,0,1.74,3.5l104.88,35.14a2.77,2.77,0,0,0,3.5-1.75l19.61-58.53a2.77,2.77,0,0,0-1.74-3.51Z" transform="translate(0 0)"/><path class="cls-4" d="M180.28,613.66,75.4,578.53a4.63,4.63,0,0,1-2.91-5.84l36.59-109.23a4.63,4.63,0,0,1,5.84-2.91L219.8,495.69a4.62,4.62,0,0,1,2.91,5.83L186.12,610.75A4.61,4.61,0,0,1,180.28,613.66ZM114.33,462.3a2.78,2.78,0,0,0-3.5,1.75L74.24,573.28a2.77,2.77,0,0,0,1.75,3.5l104.88,35.13a2.76,2.76,0,0,0,3.5-1.74L221,500.94a2.77,2.77,0,0,0-1.74-3.5Z" transform="translate(0 0)"/><path class="cls-4" d="M309.64,657,204.75,621.86a4.61,4.61,0,0,1-2.9-5.84l36.59-109.23a4.6,4.6,0,0,1,5.83-2.9L349.16,539a4.61,4.61,0,0,1,2.9,5.84L315.47,654.09A4.6,4.6,0,0,1,309.64,657ZM243.69,505.64a2.75,2.75,0,0,0-3.5,1.74L203.6,616.61a2.76,2.76,0,0,0,1.74,3.5l104.88,35.13a2.75,2.75,0,0,0,3.5-1.74l36.59-109.23a2.76,2.76,0,0,0-1.74-3.5Z" transform="translate(0 0)"/><path class="cls-4" d="M274.76,331.33l-98.39-33L213,266a5,5,0,0,1,8.19,2.75l4.15,20.44,26.57-23.49a6.25,6.25,0,0,1,8.82.54,6.32,6.32,0,0,1,1.44,2.89ZM180,297.64l92.33,30.93-12-59.05a4.39,4.39,0,0,0-7.22-2.42l-29,25.61-4.79-23.58a3.14,3.14,0,0,0-3.71-2.45,3.08,3.08,0,0,0-1.45.73Z" transform="translate(0 0)"/><path class="cls-4" d="M400.61,373.49l-98.38-33,36.58-32.34a5,5,0,0,1,7,.43,4.9,4.9,0,0,1,1.15,2.31l4.16,20.44,26.57-23.49a6.25,6.25,0,0,1,8.82.54,6.32,6.32,0,0,1,1.44,2.89ZM305.84,339.8l92.33,30.93-12-59.05a4.41,4.41,0,0,0-5.19-3.44,4.53,4.53,0,0,0-2,1l-29,25.61L345.2,311.3a3.15,3.15,0,0,0-3.71-2.46,3.08,3.08,0,0,0-1.45.73Z" transform="translate(0 0)"/><path class="cls-4" d="M274.85,331.35,170,296.22a4.63,4.63,0,0,1-2.91-5.84l19.61-58.53a4.61,4.61,0,0,1,5.84-2.91l104.88,35.13a4.63,4.63,0,0,1,2.91,5.84l-19.61,58.54A4.61,4.61,0,0,1,274.85,331.35ZM191.92,230.69a2.76,2.76,0,0,0-3.5,1.74L168.81,291a2.77,2.77,0,0,0,1.75,3.5L275.44,329.6a2.76,2.76,0,0,0,3.5-1.74l19.61-58.54a2.77,2.77,0,0,0-1.75-3.5Z" transform="translate(0 0)"/><path class="cls-4" d="M129.72,490.57a3.13,3.13,0,0,0-2,5.92h0l60.19,20.16a3.13,3.13,0,0,0,2-5.92h0Z" transform="translate(0 0)"/><path class="cls-4" d="M123.87,508.05a3.13,3.13,0,0,0-2,5.93l60.18,20.16a3.13,3.13,0,0,0,2-5.93Z" transform="translate(0 0)"/><path class="cls-4" d="M135.39,573.57a19.69,19.69,0,1,1,24.93-12.42h0A19.73,19.73,0,0,1,135.39,573.57ZM147.31,538a17.85,17.85,0,1,0,11.26,22.59h0A17.87,17.87,0,0,0,147.31,538Z" transform="translate(0 0)"/><path class="cls-4" d="M294.83,627a3.13,3.13,0,1,0,2-5.92h0l-60.18-20.16a3.13,3.13,0,1,0-2,5.92h0Z" transform="translate(0 0)"/><path class="cls-4" d="M300.69,609.5a3.13,3.13,0,0,0,2-5.92h0l-60.19-20.16a3.13,3.13,0,1,0-2,5.92h0Z" transform="translate(0 0)"/><path class="cls-4" d="M289.17,544a19.69,19.69,0,1,1-24.93,12.42h0A19.71,19.71,0,0,1,289.17,544Zm-11.93,35.6A17.85,17.85,0,1,0,266,557h0A17.87,17.87,0,0,0,277.24,579.58Z" transform="translate(0 0)"/><path id="e72023ff-0082-4fca-8d72-e00ad2ae90fe-267" class="cls-3" d="M245.44,163.25,224.2,174.78l11.8,21.1,4.79-2.64-8.88-16.11,16.25-8.95Z" transform="translate(0 0)"/><path id="b083f72c-d34c-4f98-b37f-92bc69d235e2-268" class="cls-3" d="M338.66,194.89l11.8,21.1-21.25,11.53-2.64-4.79,16.11-8.88-8.95-16.24Z" transform="translate(0 0)"/><path id="ba479c6e-ee66-4ff8-ba8d-25a42d4df816-269" class="cls-3" d="M184.44,352.25,163.2,363.78l11.8,21.1,4.79-2.64-8.88-16.11,16.25-8.95Z" transform="translate(0 0)"/><path id="a30ddd6a-0b21-4fb7-ac0e-8428853b1754-270" class="cls-3" d="M277.1,384.89,288.9,406l-21.25,11.54-2.64-4.8,16.11-8.87-8.95-16.25Z" transform="translate(0 0)"/><text class="cls-6" transform="translate(242.72 191.47) rotate(18.27)">/ 2<tspan class="cls-7" x="36.4" y="0">0</tspan><tspan class="cls-8" x="54.81" y="0">21</tspan></text><text class="cls-6" transform="translate(189.91 382.57) rotate(18.85)">2<tspan class="cls-9" x="16.42" y="0">0</tspan><tspan x="34.83" y="0">22</tspan></text></svg>