<svg id="Capa_1" data-name="Capa 1" xmlns="http://www.w3.org/2000/svg" viewBox="0 0 43.63 35.52"><defs><style>.cls-1{fill:#998a42;}</style></defs><path class="cls-1" d="M3.06,0H40.44A3.06,3.06,0,0,1,43.5,3.06h0a3.06,3.06,0,0,1-3.06,3.06H3.06A3.06,3.06,0,0,1,0,3.06H0A3.06,3.06,0,0,1,3.06,0Z"/><path class="cls-1" d="M3.06,14.7H40.44a3.06,3.06,0,0,1,3.06,3.06h0a3.06,3.06,0,0,1-3.06,3.06H3.06A3.06,3.06,0,0,1,0,17.76H0A3.06,3.06,0,0,1,3.06,14.7Z"/><path class="cls-1" d="M3.19,29.4H40.57a3.06,3.06,0,0,1,3.06,3.06h0a3.06,3.06,0,0,1-3.06,3.06H3.19A3.06,3.06,0,0,1,.13,32.46h0A3.06,3.06,0,0,1,3.19,29.4Z"/></svg>